<svg xmlns="http://www.w3.org/2000/svg" viewBox="0 0 512 512" width="512" height="512">
<rect width="512" height="512" rx="64" fill="#0F1D32"/>
<g transform="translate(61.44,61.44) scale(0.38912)">
<path fill="#C9A84C" d="M 684.671875 639.167969 C 727.3125 656.039062 775.503906 657.765625 817.292969 637.4375 L 751.574219 464.257812 Z M 305.402344 639.121094 L 238.542969 464.257812 L 172.820312 637.4375 C 214.578125 657.832031 262.78125 656.027344 305.402344 639.121094 M 459.25 304.585938 C 441.460938 310.753906 424.550781 319.9375 406.707031 326.597656 C 364.691406 342.269531 320.671875 351.980469 276.125 357.457031 L 383.265625 641.792969 C 392.398438 668.054688 365.710938 685.792969 346.15625 696.917969 C 285.761719 731.277344 211.992188 733.667969 148.878906 704.769531 C 128.679688 695.519531 92.640625 676.167969 94.105469 650.386719 L 202.109375 360.308594 C 202.40625 357.925781 202.054688 358.816406 200.402344 358.589844 C 194.878906 357.835938 186.332031 358.539062 180.367188 358.542969 C 177.5625 358.546875 174.972656 359.871094 172.195312 359.863281 C 121.34375 359.785156 117.824219 291.023438 166.46875 285.945312 C 195.09375 282.960938 228.523438 287.371094 257.886719 285.789062 C 296.960938 283.691406 337.410156 274.109375 374.152344 261.167969 C 402.867188 251.058594 429.796875 236.382812 459.128906 228.160156 C 462.117188 201.796875 449.339844 161.847656 478.011719 146.660156 C 502.558594 133.65625 528.59375 150.300781 530.90625 177.160156 C 532.3125 193.472656 529.734375 211.707031 530.917969 228.226562 C 556.078125 234.132812 579.175781 247.019531 603.363281 256.15625 C 646.121094 272.3125 692.097656 283.769531 738.035156 285.851562 C 765.195312 287.082031 801.179688 282.300781 826.785156 286.332031 C 870.140625 293.15625 870.304688 358.417969 817.917969 359.875 C 812.203125 360.035156 803.929688 358.4375 797.957031 358.824219 C 796.585938 358.914062 787.957031 359.863281 787.964844 360.371094 L 892.488281 637.410156 C 903.578125 662.667969 885.324219 678.332031 866.320312 691.113281 C 799.683594 735.933594 705.105469 734.945312 637.339844 692.96875 C 621.640625 683.242188 602.261719 669.269531 604.933594 648.089844 L 714.015625 357.429688 C 649.882812 350.160156 588.605469 331.625 530.867188 303.414062 L 530.867188 798.859375 L 681.730469 798.859375 C 687.328125 798.859375 698.921875 806.359375 702.886719 810.574219 C 722.285156 831.152344 711.9375 864.484375 684.972656 871.371094 L 311.855469 871.699219 C 275.84375 869.777344 265.109375 820.707031 296.609375 803.519531 C 298.488281 802.496094 306.953125 798.859375 308.382812 798.859375 L 459.25 798.859375 Z M 459.25 304.585938"/>
</g>
</svg>